<?xml version="1.0" encoding="utf-8"?>
<!-- Generator: Adobe Illustrator 22.1.0, SVG Export Plug-In . SVG Version: 6.00 Build 0)  -->
<svg version="1.1" id="圖層_1" xmlns="http://www.w3.org/2000/svg" xmlns:xlink="http://www.w3.org/1999/xlink" x="0px" y="0px"
	 viewBox="0 0 71.4 71.4" style="enable-background:new 0 0 71.4 71.4;" xml:space="preserve">
<style type="text/css">
	.st0{fill:#6B6B6B;}
</style>
<path id="形狀_4_拷貝" class="st0" d="M17.2,20.4c0-8.1,1.2-12.4,6.4-16.6c3.4-2.7,7.1-3.6,11.6-3.7C41.1,0,46.4,1.7,50.3,5.7
	c3.9,4.1,3.9,6.9,3.9,14.7c2.9,0,5.5,0,8.1,0c3.4,0,5.2,1.4,5.4,4.5c1.1,11.9,2.1,23.8,3.2,35.7c0.2,1.8,0.4,3.6,0.5,5.5
	c0.2,3.5-1.6,5.2-5.5,5.2c-8.8,0-17.6,0-26.4,0c-10.9,0-21.9,0-32.8,0c-5.3,0-6.9-1.4-6.5-6.1c0.8-9.8,1.7-19.6,2.6-29.4
	c0.3-3.7,0.6-7.4,1-11.1c0.3-2.7,2.1-4.2,5-4.2C11.4,20.4,14.1,20.4,17.2,20.4z M64.4,65.4c-1-11.1-1.9-28.1-2.9-39h-7.4v10.7h-7.8
	V26.4H25v10.7h-8V26.4H9.9C8.9,37.4,8,54.5,7,65.4L64.4,65.4L64.4,65.4z M24.9,20.5h21.5c0.6-10.5-3-14.1-10.4-14.2
	C28.3,6.2,24.5,10,24.9,20.5L24.9,20.5z"/>
</svg>
