<?xml version="1.0" encoding="utf-8"?>
<!-- Generator: Adobe Illustrator 22.1.0, SVG Export Plug-In . SVG Version: 6.00 Build 0)  -->
<svg version="1.1" id="圖層_1" xmlns="http://www.w3.org/2000/svg" xmlns:xlink="http://www.w3.org/1999/xlink" x="0px" y="0px"
	 viewBox="0 0 71.4 71.4" style="enable-background:new 0 0 71.4 71.4;" xml:space="preserve">
<style type="text/css">
	.st0{fill:#6B6B6B;}
</style>
<path id="形狀_7" class="st0" d="M49.1,10.4c0.4,0,0.9,0,1.3,0.1c3,0.3,5.9,1.4,8.2,3.4c0.2,0.1,0.3,0.3,0.5,0.4
	c0.1,0.1,0.2,0.2,0.4,0.3c1.3,1.3,2.4,2.7,3.3,4.4c0.5,1,0.9,2,1.1,3c0.4,1.5,0.6,3.1,0.5,4.7c-0.1,1.3-0.4,2.6-0.7,3.8
	c-1.1,3.2-2.6,6.2-4.6,8.9c-2.7,3.7-5.7,7.1-9.1,10.2c-2.1,1.9-4.2,3.8-6.4,5.6c-2.2,1.8-4.5,3.5-6.8,5.2c-0.2,0.2-0.5,0.3-0.8,0.5
	c0,0.1-0.1,0.1-0.2,0.1c-0.1,0-0.1-0.1-0.2-0.1c-1.9-1.4-3.8-2.8-5.7-4.3c-1.9-1.6-3.8-3.2-5.7-4.8l0,0c-0.9-0.8-2.4-2.2-3.4-3.1
	c-0.6-0.6-1.2-1.1-1.7-1.7c-1.9-2-3.7-4-5.4-6.2c-1.6-2.1-3-4.3-4.2-6.6c-0.7-1.3-1.2-2.6-1.6-4c-0.5-1.7-0.8-3.5-0.7-5.3
	c0.1-1.1,0.3-2.2,0.6-3.2c0.9-3.1,2.6-5.8,5.1-7.8c1.1-0.9,2.3-1.7,3.6-2.2c1.3-0.6,2.7-1,4.1-1.1c0.6-0.1,1.1-0.1,1.7-0.1
	c0.9,0,1.9,0.1,2.8,0.3c0.3,0,0.6,0.1,0.8,0.2c0.3,0.1,0.6,0.2,0.9,0.3h0c0.7,0.3,1.5,0.5,2.2,0.8c1.6,0.7,3.1,1.8,4.3,3.1
	c1,1,1.7,2.3,2.1,3.6c0,0.1,0.1,0.2,0.2,0.4c0.2-0.5,0.4-0.8,0.5-1.2c0.5-1.3,1.3-2.4,2.2-3.3c1.4-1.4,3.1-2.5,4.9-3.1
	C45.2,10.8,47.1,10.4,49.1,10.4 M49,3.9c-2.7,0-5.4,0.5-7.9,1.5c-1.9,0.7-3.8,1.7-5.4,3c-1.2-1-2.6-1.8-4-2.4
	c-0.7-0.3-1.4-0.6-2-0.8c-0.2-0.1-0.4-0.1-0.6-0.2l-0.2-0.1l-0.1,0c-0.5-0.2-1-0.3-1.5-0.4l-0.1,0l-0.1,0l-0.1,0
	c-0.3,0-0.5-0.1-0.8-0.1c-1.3-0.2-2.6-0.3-3.9-0.3c-0.8,0-1.7,0-2.5,0.1c-2.1,0.3-4.1,0.8-6,1.6C12,6.5,10.2,7.6,8.7,8.9
	c-3.4,2.9-5.9,6.7-7.2,11C1,21.5,0.8,23,0.7,24.6c-0.1,2.5,0.2,5.1,0.9,7.5c0.5,1.7,1.2,3.4,2,5.1c1.4,2.7,3,5.3,4.9,7.7
	c1.8,2.4,3.8,4.6,5.9,6.8c0.5,0.5,0.9,0.9,1.3,1.3l0.5,0.5l0,0l0,0c1,1,2.6,2.5,3.6,3.4l0,0l0,0l0.9,0.7c1.6,1.4,3.3,2.8,5,4.2
	c1.2,1,2.5,1.9,3.7,2.8c0.7,0.5,1.4,1.1,2.1,1.6c0.2,0.2,0.4,0.3,0.7,0.4c2.2,1.3,4.9,1.3,7.1-0.1c0.2-0.1,0.4-0.3,0.6-0.4l0.1,0
	c0.1-0.1,0.4-0.2,0.6-0.4c0.7-0.5,1.3-1,2-1.5c1.6-1.2,3.3-2.5,5-3.9c2.1-1.7,4.3-3.6,6.7-5.9c3.7-3.4,7-7.1,9.9-11.2
	c2.4-3.2,4.3-6.8,5.5-10.7c0.5-1.7,0.9-3.4,1-5.2c0.2-2.3,0-4.7-0.7-6.9c-0.4-1.5-0.9-2.9-1.6-4.2l0,0l0,0c-1.2-2.3-2.7-4.4-4.6-6.1
	l-0.1-0.1l-0.1,0c-0.1-0.1-0.2-0.1-0.2-0.2l0,0l0,0l0,0c-0.2-0.2-0.3-0.3-0.6-0.5l-0.1-0.1l-0.1-0.1c-1.7-1.4-3.5-2.5-5.5-3.4
	c-2-0.8-4.1-1.4-6.3-1.5C50.3,3.9,49.7,3.9,49,3.9L49,3.9L49,3.9z"/>
</svg>
