<?xml version="1.0" encoding="utf-8"?>
<!-- Generator: Adobe Illustrator 22.1.0, SVG Export Plug-In . SVG Version: 6.00 Build 0)  -->
<svg version="1.1" id="圖層_1" xmlns="http://www.w3.org/2000/svg" xmlns:xlink="http://www.w3.org/1999/xlink" x="0px" y="0px"
	 viewBox="0 0 71.4 71.4" style="enable-background:new 0 0 71.4 71.4;" xml:space="preserve">
<style type="text/css">
	.st0{fill:#6B6B6B;}
</style>
<path id="形狀_6_拷貝_2" class="st0" d="M65.9,16.3C59.3,10.4,55.3,6.9,48.7,1c-0.3-0.3-0.8-0.5-1.3-0.5c-13.1,0-23.6,0-36.7,0
	C7.2,0.5,5,2.5,5,5.6v29.5c0,10.7,0,20.2,0,30.8c0,2.9,2.2,4.9,5.6,4.9c18.5,0,31.8,0,50.3,0c3.3,0,5.5-2,5.5-4.9
	c0-16.6,0-32.1,0-48.7C66.4,16.9,66.2,16.5,65.9,16.3z M60.2,64H11.2V6.4h32.6v14.4h16.3L60.2,64L60.2,64z M16,57h39.4v-5.1H16
	L16,57L16,57z M34.7,12.8H16v6.1h18.7V12.8z M49.5,9.2l8.3,6.9h-8.3V9.2z"/>
</svg>
