<svg xmlns="http://www.w3.org/2000/svg" width="150" height="65" viewBox="0 0 150 65">
  <metadata><?xpacket begin="﻿" id="W5M0MpCehiHzreSzNTczkc9d"?>
<x:xmpmeta xmlns:x="adobe:ns:meta/" x:xmptk="Adobe XMP Core 5.6-c140 79.160451, 2017/05/06-01:08:21        ">
   <rdf:RDF xmlns:rdf="http://www.w3.org/1999/02/22-rdf-syntax-ns#">
      <rdf:Description rdf:about=""/>
   </rdf:RDF>
</x:xmpmeta>
                                                                                                    
                                                                                                    
                                                                                                    
                                                                                                    
                                                                                                    
                                                                                                    
                                                                                                    
                                                                                                    
                                                                                                    
                                                                                                    
                                                                                                    
                                                                                                    
                                                                                                    
                                                                                                    
                                                                                                    
                                                                                                    
                                                                                                    
                                                                                                    
                                                                                                    
                                                                                                    
                           
<?xpacket end="w"?></metadata>
<defs>
    <style>
      .cls-1 {
        fill-rule: evenodd;
      }
    </style>
  </defs>
  <path id="Logo_1.png_拷貝" data-name="Logo_1.png 拷貝" class="cls-1" d="M844.422,89.189a0.865,0.865,0,0,1-.737-0.49,2.224,2.224,0,0,1-.3-1.172V80.5A2.265,2.265,0,0,0,842.11,78.6a5.675,5.675,0,0,0-3.063-.785,5.34,5.34,0,0,0-2.975.809,2.378,2.378,0,0,0-1.222,1.992v0.708h1.031v-0.6a1.78,1.78,0,0,1,.926-1.468,4.072,4.072,0,0,1,2.24-.6,4.147,4.147,0,0,1,2.335.626,1.8,1.8,0,0,1,.977,1.52v1.033a1.277,1.277,0,0,1-1.113.9,11.775,11.775,0,0,1-2.788.541,5.2,5.2,0,0,0-2.93,1.15,2.817,2.817,0,0,0,.03,4.622,4.467,4.467,0,0,0,2.9.954,4.985,4.985,0,0,0,2.437-.572,2.755,2.755,0,0,0,1.382-1.494,2.075,2.075,0,0,0,.431,1.312,1.406,1.406,0,0,0,1.088.541,2.408,2.408,0,0,0,1.029-.188V89.078a0.366,0.366,0,0,1-.162.083A0.812,0.812,0,0,1,844.422,89.189Zm-2.063-3.322a4.023,4.023,0,0,1-3.9,3.322,3.139,3.139,0,0,1-2.117-.737,2.148,2.148,0,0,1-.894-1.745,2.183,2.183,0,0,1,.869-1.733,3.59,3.59,0,0,1,2.142-.88,18.411,18.411,0,0,0,2.522-.353,3.22,3.22,0,0,0,1.379-.549v2.675ZM871.606,32.9a10.141,10.141,0,0,0-8.055,3.481q-3.036,3.488-3.032,9.315T863.551,55a10.15,10.15,0,0,0,8.055,3.487A10.32,10.32,0,0,0,879.718,55q3.027-3.483,3.029-9.311t-3.029-9.315A10.312,10.312,0,0,0,871.606,32.9Zm5.449,19.665a6.944,6.944,0,0,1-10.841,0,10.991,10.991,0,0,1-2.012-6.9,10.751,10.751,0,0,1,2.012-6.836,6.944,6.944,0,0,1,10.841,0,10.786,10.786,0,0,1,2.006,6.836A11.026,11.026,0,0,1,877.055,52.563Zm-89.42-19.288a8.823,8.823,0,0,0-3.835.874,9.087,9.087,0,0,0-3.133,2.452,7.348,7.348,0,0,0-2.874-2.452,8.187,8.187,0,0,0-3.742-.874,8.575,8.575,0,0,0-2.928.5,6.95,6.95,0,0,0-2.445,1.574l0.01-1.247H765V58.11h3.688V41.553a4.483,4.483,0,0,1,1.629-3.533,5.346,5.346,0,0,1,3.736-1.419,4.8,4.8,0,0,1,3.526,1.466,4.676,4.676,0,0,1,1.462,3.486V58.11h3.686V41.553a4.682,4.682,0,0,1,1.464-3.486,4.842,4.842,0,0,1,6.942,0,4.684,4.684,0,0,1,1.462,3.486V58.11h3.683V41.553a7.7,7.7,0,0,0-2.588-5.879A8.406,8.406,0,0,0,787.635,33.275ZM810.267,58.11h3.686V33.275h-3.686V58.11Zm0-29.407h3.686V25h-3.686v3.7ZM823.52,77.7a4.188,4.188,0,0,0-2.223.623,3.723,3.723,0,0,0-1.487,1.642V78h-1.087V89.6h1.087V81.943a3.979,3.979,0,0,1,1.3-2.362,3.546,3.546,0,0,1,2.413-.927,3.032,3.032,0,0,1,2.144.842,2.7,2.7,0,0,1,.895,2.038V89.6h1.081V81.533a3.6,3.6,0,0,0-1.219-2.715A4.063,4.063,0,0,0,823.52,77.7Zm15.23-44.422a9.937,9.937,0,0,0-3.943.767,6.175,6.175,0,0,0-2.866,2.558l0.006-2.5h-3.681V58.11h3.681v-15.3a5.645,5.645,0,0,1,1.846-4.251,6.2,6.2,0,0,1,4.393-1.745,6.019,6.019,0,0,1,4.338,1.745,5.734,5.734,0,0,1,1.785,4.251v15.3H848v-15.3a9.247,9.247,0,0,0-2.7-6.7A8.733,8.733,0,0,0,838.75,33.275ZM851.276,89.6h1.085V78h-1.085V89.6Zm0-14.483h1.085V73.45h-1.085v1.665ZM860.2,89.6h1.082V73.45H860.2V89.6Zm51.118-55.884V48.16a7.075,7.075,0,0,1-1.9,4.947,6.106,6.106,0,0,1-4.669,2.06,5.126,5.126,0,0,1-4.222-2.174,7.558,7.558,0,0,1-1.576-4.833V33.715h-3.683V48.632a10.271,10.271,0,0,0,2.439,6.863,7.8,7.8,0,0,0,6.237,3,10.147,10.147,0,0,0,4.227-.87,6.683,6.683,0,0,0,3.143-2.832V58.11H915v-24.4h-3.686Z" transform="translate(-765 -25)"/>
</svg>
